<svg width="58" height="58" viewBox="0 0 58 58" fill="none" xmlns="http://www.w3.org/2000/svg">
<g clip-path="url(#clip0_41_193)">
<path fill-rule="evenodd" clip-rule="evenodd" d="M58 29C58 45.0163 45.0163 58 29 58C12.9837 58 0 45.0163 0 29C0 12.9837 12.9837 0 29 0C45.0163 0 58 12.9837 58 29ZM30.0392 21.4091C27.2186 22.5823 21.5812 25.0106 13.1271 28.6939C11.7543 29.2398 11.0351 29.7739 10.9697 30.2961C10.859 31.1786 11.9642 31.5261 13.4692 31.9994C13.6739 32.0638 13.8861 32.1304 14.1035 32.2011C15.5842 32.6824 17.576 33.2455 18.6114 33.2679C19.5507 33.2882 20.599 32.901 21.7564 32.1062C29.6553 26.7743 33.7328 24.0792 33.9888 24.0211C34.1694 23.9801 34.4196 23.9286 34.5892 24.0793C34.7588 24.23 34.7421 24.5154 34.7241 24.592C34.6146 25.0588 30.2763 29.092 28.0312 31.1793C27.3313 31.83 26.8348 32.2915 26.7334 32.397C26.506 32.6331 26.2743 32.8565 26.0516 33.0711C24.676 34.3972 23.6445 35.3916 26.1087 37.0156C27.293 37.796 28.2406 38.4413 29.186 39.0851C30.2184 39.7882 31.2482 40.4895 32.5806 41.3629C32.92 41.5854 33.2442 41.8165 33.56 42.0416C34.7615 42.8982 35.841 43.6678 37.1746 43.545C37.9495 43.4737 38.75 42.7451 39.1565 40.5718C40.1172 35.4359 42.0056 24.3079 42.442 19.7224C42.4803 19.3206 42.4322 18.8064 42.3935 18.5807C42.3549 18.355 42.2742 18.0334 41.9808 17.7954C41.6334 17.5134 41.097 17.454 40.8571 17.4582C39.7663 17.4774 38.0928 18.0593 30.0392 21.4091Z" fill="white"/>
</g>
<defs>
<clipPath id="clip0_41_193">
<rect width="58" height="58" fill="white"/>
</clipPath>
</defs>
</svg>
